<svg width="24" height="24" viewBox="0 0 24 24" fill="none" xmlns="http://www.w3.org/2000/svg">
<mask id="mask0" mask-type="alpha" maskUnits="userSpaceOnUse" x="8" y="6" width="9" height="12">
<path d="M8.84251 15.5011L11.2061 17.1786C11.8994 17.6705 12.8279 17.6705 13.5211 17.1786L15.8848 15.5011C16.4133 15.1261 16.7273 14.5182 16.7273 13.8701V10.1299C16.7273 9.48182 16.4133 8.87393 15.8848 8.49886L13.5211 6.82145C12.8279 6.32947 11.8994 6.32947 11.2061 6.82145L8.84251 8.49886C8.31401 8.87393 8 9.48182 8 10.1299V13.8701C8 14.5182 8.31401 15.1261 8.84251 15.5011Z" fill="white"/>
</mask>
<g mask="url(#mask0)">
<path d="M12.3637 15.2727L9.562 13.3372L8.00024 14.9032L12.3637 18V15.2727Z" fill="url(#paint0_linear)"/>
<path d="M12.3635 8.99999L15.1404 10.9355L16.7272 9.09677L12.3635 5.99999V8.99999Z" fill="url(#paint1_linear)"/>
<path d="M12.3635 15.2727L15.1154 13.3372L16.7272 14.9032L12.3635 18V15.2727Z" fill="url(#paint2_linear)"/>
<path d="M12.3637 8.7273L9.90907 10.9091L8.00024 9.0968L12.3637 6.00003V8.7273Z" fill="url(#paint3_linear)"/>
<path d="M12.3637 8.7273L9.90907 10.9091L8.00024 9.0968L12.3637 6.00003V8.7273Z" fill="url(#paint4_linear)"/>
<path d="M7.99997 9.09675L10.3488 10.3636V13.6363L7.99997 14.9032V9.09675Z" fill="url(#paint5_linear)"/>
<path d="M16.7272 9.09675L14.4397 10.3636V13.6363L16.7272 14.9032V9.09675Z" fill="url(#paint6_linear)"/>
<g filter="url(#filter0_d)">
<path d="M9.63623 13.4648V10.5352C9.63623 10.2008 9.80333 9.8886 10.0815 9.70314L11.8088 8.55162C12.1447 8.32769 12.5823 8.32769 12.9182 8.55162L14.6455 9.70314C14.9237 9.8886 15.0908 10.2008 15.0908 10.5352V13.4648C15.0908 13.7992 14.9237 14.1114 14.6455 14.2969L12.9182 15.4484C12.5823 15.6723 12.1447 15.6723 11.8088 15.4484L10.0815 14.2969C9.80333 14.1114 9.63623 13.7992 9.63623 13.4648Z" fill="url(#paint7_linear)"/>
<path d="M9.63623 13.4648V10.5352C9.63623 10.2008 9.80333 9.8886 10.0815 9.70314L11.8088 8.55162C12.1447 8.32769 12.5823 8.32769 12.9182 8.55162L14.6455 9.70314C14.9237 9.8886 15.0908 10.2008 15.0908 10.5352V13.4648C15.0908 13.7992 14.9237 14.1114 14.6455 14.2969L12.9182 15.4484C12.5823 15.6723 12.1447 15.6723 11.8088 15.4484L10.0815 14.2969C9.80333 14.1114 9.63623 13.7992 9.63623 13.4648Z" fill="url(#paint8_linear)" fill-opacity="0.51"/>
</g>
</g>
<defs>
<filter id="filter0_d" x="5.63623" y="8.38367" width="13.4545" height="15.2327" filterUnits="userSpaceOnUse" color-interpolation-filters="sRGB">
<feFlood flood-opacity="0" result="BackgroundImageFix"/>
<feColorMatrix in="SourceAlpha" type="matrix" values="0 0 0 0 0 0 0 0 0 0 0 0 0 0 0 0 0 0 127 0"/>
<feOffset dy="4"/>
<feGaussianBlur stdDeviation="2"/>
<feColorMatrix type="matrix" values="0 0 0 0 0 0 0 0 0 0 0 0 0 0 0 0 0 0 0.25 0"/>
<feBlend mode="normal" in2="BackgroundImageFix" result="effect1_dropShadow"/>
<feBlend mode="normal" in="SourceGraphic" in2="effect1_dropShadow" result="shape"/>
</filter>
<linearGradient id="paint0_linear" x1="8.79361" y1="18" x2="11.0267" y2="14.6742" gradientUnits="userSpaceOnUse">
<stop stop-color="#00EC6D"/>
<stop offset="1" stop-color="#001600"/>
</linearGradient>
<linearGradient id="paint1_linear" x1="15.7355" y1="6.77417" x2="13.8756" y2="9.57383" gradientUnits="userSpaceOnUse">
<stop stop-color="#00EC6D"/>
<stop offset="1" stop-color="#001600"/>
</linearGradient>
<linearGradient id="paint2_linear" x1="15.3388" y1="17.2258" x2="13.6143" y2="14.9588" gradientUnits="userSpaceOnUse">
<stop stop-color="#00EC6D"/>
<stop offset="1" stop-color="#001600"/>
</linearGradient>
<linearGradient id="paint3_linear" x1="10.3803" y1="7.35485" x2="12.6834" y2="10.6983" gradientUnits="userSpaceOnUse">
<stop stop-color="#00EC6D"/>
<stop offset="1" stop-color="#001600"/>
</linearGradient>
<linearGradient id="paint4_linear" x1="8.79361" y1="6.00001" x2="13.0414" y2="10.7487" gradientUnits="userSpaceOnUse">
<stop stop-color="white"/>
<stop offset="1" stop-color="white" stop-opacity="0"/>
</linearGradient>
<linearGradient id="paint5_linear" x1="6.90896" y1="11.4545" x2="10.0147" y2="11.4646" gradientUnits="userSpaceOnUse">
<stop stop-color="#00EC6D"/>
<stop offset="0.955011" stop-color="#001600"/>
</linearGradient>
<linearGradient id="paint6_linear" x1="19.1817" y1="10.9091" x2="14.6514" y2="10.8765" gradientUnits="userSpaceOnUse">
<stop stop-color="#00EC6D"/>
<stop offset="1" stop-color="#001600"/>
</linearGradient>
<linearGradient id="paint7_linear" x1="11.3783" y1="8.72728" x2="12.4692" y2="17.4546" gradientUnits="userSpaceOnUse">
<stop stop-color="#00EC6D"/>
<stop offset="0.821844" stop-color="#123412"/>
</linearGradient>
<linearGradient id="paint8_linear" x1="11.1947" y1="8.9091" x2="14.7161" y2="14.9458" gradientUnits="userSpaceOnUse">
<stop stop-color="white"/>
<stop offset="1" stop-color="white" stop-opacity="0"/>
</linearGradient>
</defs>
</svg>
