<svg width="32" height="32" viewBox="0 0 32 32" fill="none" xmlns="http://www.w3.org/2000/svg">
<path fill-rule="evenodd" clip-rule="evenodd" d="M12 7H8C7.44772 7 7 7.44772 7 8V24C7 24.5523 7.44772 25 8 25H10L10 20C10 18.8954 10.8955 18 12 18H20C21.1046 18 22 18.8954 22 20L22 25H24C24.5523 25 25 24.5523 25 24V11.891C25 11.6396 24.9053 11.3974 24.7348 11.2127L21.1431 7.32172C20.9538 7.11664 20.6874 7 20.4083 7H19V8C19 9.10457 18.1046 10 17 10L14 10C12.8954 10 12 9.10457 12 8L12 7Z" fill="#4F4F4F"/>
<path d="M21 25L11 25L11 20C11 19.4477 11.4477 19 12 19L20 19C20.5523 19 21 19.4477 21 20L21 25Z" fill="#868686"/>
<path d="M13 7H18V8C18 8.55228 17.5523 9 17 9H14C13.4477 9 13 8.55228 13 8V7Z" fill="#868686"/>
</svg>
