<svg width="32" height="32" viewBox="0 0 32 32" fill="none" xmlns="http://www.w3.org/2000/svg">
<path d="M27 9C27 8.44772 26.5523 8 26 8H20.1259C19.8344 8 19.5574 8.12716 19.3675 8.34821L17.6742 10.3185C17.4842 10.5395 17.2072 10.6667 16.9158 10.6667H6.00001C5.44772 10.6667 5.00001 11.1144 5.00001 11.6667L5.00015 23C5.00016 23.5523 5.44788 24 6.00015 24H26C26.5523 24 27 23.5523 27 23V9Z" fill="#868686"/>
<path d="M5 9C5 8.44772 5.44772 8 6 8H11.8742C12.1657 8 12.4426 8.12717 12.6326 8.34823L14.3257 10.3184C14.5157 10.5395 14.7927 10.6667 15.0842 10.6667H26C26.5523 10.6667 27 11.1144 27 11.6667V23C27 23.5523 26.5523 24 26 24H6C5.44772 24 5 23.5523 5 23V9Z" fill="#4F4F4F"/>
<path d="M17.375 17.375L14.625 18.75L14.625 16L17.375 17.375Z" fill="#868686"/>
</svg>
